<svg xmlns="http://www.w3.org/2000/svg" xmlns:xlink="http://www.w3.org/1999/xlink" width="133.826" height="44.095" viewBox="0 0 133.826 44.095"><defs><style>.a{fill:#fff;}.b{clip-path:url(#a);}</style><clipPath id="a"><rect class="a" width="133.826" height="44.095"/></clipPath></defs><g class="b"><path class="a" d="M76.19,20.711v-.048a8.521,8.521,0,0,1,8.744-8.625,8.122,8.122,0,0,1,7.037,3.46l-3.46,2.677a4.441,4.441,0,0,0-3.625-1.943,4.1,4.1,0,0,0-3.957,4.384v.047c0,2.488,1.635,4.432,3.957,4.432a4.532,4.532,0,0,0,3.745-2.014l3.459,2.464a8.732,8.732,0,0,1-15.9-4.834" transform="translate(-26.882 -4.247)"/><path class="a" d="M112.608,22.532l-1.848-4.715-1.872,4.715Zm-4.029-10.165h4.431l7.061,16.705h-4.929l-1.208-2.962h-6.4l-1.185,2.962h-4.834Z" transform="translate(-35.819 -4.363)"/><path class="a" d="M140.706,25.44c1.4,0,2.2-.545,2.2-1.516v-.047c0-.9-.711-1.492-2.251-1.492h-3.506V25.44Zm-.664-6.279c1.4,0,2.18-.474,2.18-1.446v-.047c0-.9-.711-1.422-2.085-1.422h-2.985v2.915Zm-7.369-6.611h8.507a6.115,6.115,0,0,1,4.526,1.493,3.638,3.638,0,0,1,1.067,2.678v.047a3.841,3.841,0,0,1-2.559,3.7c2.013.663,3.293,1.8,3.293,4.051v.048c0,2.844-2.322,4.573-6.279,4.573h-8.554Z" transform="translate(-46.811 -4.428)"/><path class="a" d="M156.582,12.524h4.858l2.892,9.6,3.2-9.644h3.957l3.2,9.644,2.891-9.6h4.763l-5.545,16.705h-4l-3.341-9.549-3.317,9.549h-4Z" transform="translate(-55.247 -4.402)"/><rect class="a" width="4.62" height="16.587" transform="translate(129.008 8.122)"/><path class="a" d="M81.809,46.4l-1.125,2.624h2.259Zm3.439,5.228H84.031l-.665-1.584h-3.1l-.675,1.584H78.409l2.885-6.606h1.069Z" transform="translate(-27.665 -15.886)"/><path class="a" d="M92.687,45.067h.975l1.611,4.882,1.564-4.863h1.21l-2.286,6.606h-.993l-1.611-4.713-1.612,4.713H90.55l-2.286-6.606H89.51l1.564,4.863Z" transform="translate(-31.142 -15.901)"/><path class="a" d="M106.067,46.4l-1.125,2.624H107.2Zm3.438,5.228h-1.217l-.665-1.584h-3.1l-.675,1.584h-1.18l2.885-6.606h1.069Z" transform="translate(-36.224 -15.886)"/><path class="a" d="M117.438,46.145H115.76v2.2h1.687c.824,0,1.349-.431,1.349-1.105,0-.722-.506-1.1-1.358-1.1m1.377,5.509L117.2,49.368H115.76v2.286h-1.152V45.1h2.923c1.509,0,2.437.8,2.437,2.081a1.964,1.964,0,0,1-1.564,2l1.77,2.483Z" transform="translate(-40.437 -15.911)"/><path class="a" d="M127.156,46.145h-1.292V50.6h1.292a2.23,2.23,0,1,0,0-4.46m0,5.509H124.71V45.1h2.446a3.286,3.286,0,1,1,0,6.559" transform="translate(-44.002 -15.911)"/><rect class="a" width="1.152" height="6.559" transform="translate(87.866 29.184)"/><path class="a" d="M144.478,45.1h1.133v6.559h-.964l-3.616-4.667v4.667H139.9V45.1h1.067l3.515,4.535Z" transform="translate(-49.36 -15.911)"/><path class="a" d="M153.921,51.706a3.257,3.257,0,0,1-3.4-3.382,3.344,3.344,0,0,1,3.383-3.4,3.541,3.541,0,0,1,2.521.891l-.731.871a2.57,2.57,0,0,0-1.837-.7,2.216,2.216,0,0,0-2.127,2.324,2.193,2.193,0,0,0,2.231,2.351,2.674,2.674,0,0,0,1.583-.5V48.932h-1.677v-1h2.793v2.755a4.181,4.181,0,0,1-2.736,1.021" transform="translate(-53.108 -15.85)"/><path class="a" d="M170.247,49.725c0-.562-.441-.89-1.35-.89h-1.826v1.8h1.91c.788,0,1.266-.309,1.266-.909m-.366-2.764c0-.535-.412-.843-1.152-.843h-1.658V47.86h1.574c.74,0,1.236-.291,1.236-.9m1.153-.188a1.554,1.554,0,0,1-.937,1.471,1.611,1.611,0,0,1,1.3,1.6c0,1.18-.965,1.808-2.428,1.808h-3.035V45.1h2.941c1.322,0,2.155.647,2.155,1.677" transform="translate(-58.548 -15.911)"/><path class="a" d="M179,45.981a2.219,2.219,0,0,0-2.212,2.324,2.25,2.25,0,0,0,2.231,2.342,2.218,2.218,0,0,0,2.21-2.323A2.25,2.25,0,0,0,179,45.981m0,5.725a3.392,3.392,0,1,1,3.438-3.4,3.331,3.331,0,0,1-3.438,3.4" transform="translate(-61.949 -15.85)"/><path class="a" d="M190.413,46.145h-1.294V50.6h1.294a2.23,2.23,0,1,0,0-4.46m0,5.509h-2.446V45.1h2.446a3.286,3.286,0,1,1,0,6.559" transform="translate(-66.321 -15.911)"/><path class="a" d="M200.709,51.654h-1.162V49.068l-2.6-3.973H198.3L200.137,48l1.855-2.905h1.322l-2.6,3.945Z" transform="translate(-69.488 -15.911)"/><path class="a" d="M28.02,39.112A11.092,11.092,0,1,1,35.687,20,1.506,1.506,0,1,1,33.6,22.18a8.08,8.08,0,1,0,.2,11.483,1.506,1.506,0,1,1,2.156,2.1,11,11,0,0,1-7.938,3.345" transform="translate(-5.973 -5.973)"/><path class="a" d="M25.034,41.6a16.444,16.444,0,0,1-6.872-1.488A16.572,16.572,0,1,1,38.221,15a1.506,1.506,0,1,1-2.4,1.826,13.562,13.562,0,1,0-10.79,21.766,1.506,1.506,0,1,1,0,3.013" transform="translate(-2.986 -2.986)"/><path class="a" d="M25.034,41.6a16.444,16.444,0,0,1-6.872-1.488A16.572,16.572,0,1,1,38.221,15a1.506,1.506,0,1,1-2.4,1.826,13.562,13.562,0,1,0-10.79,21.766,1.506,1.506,0,1,1,0,3.013" transform="translate(-2.986 -2.986)"/><path class="a" d="M22.048,44.095A22.047,22.047,0,1,1,30.28,1.589a1.506,1.506,0,0,1-1.125,2.794,19.037,19.037,0,1,0-7.107,36.7A18.885,18.885,0,0,0,35.709,35.3a1.506,1.506,0,0,1,2.162,2.1,21.871,21.871,0,0,1-15.824,6.7" transform="translate(0 0)"/></g></svg>