<svg xmlns="http://www.w3.org/2000/svg" xmlns:xlink="http://www.w3.org/1999/xlink" width="198.731" height="65.48" viewBox="0 0 198.731 65.48"><defs><style>.a{fill:none;}.b{clip-path:url(#a);}.c{fill:#fff;}</style><clipPath id="a"><rect class="a" width="198.731" height="65.48"/></clipPath></defs><g transform="translate(0)"><g class="b" transform="translate(0 0)"><path class="c" d="M76.19,24.917v-.071A12.654,12.654,0,0,1,89.175,12.038a12.06,12.06,0,0,1,10.45,5.138l-5.138,3.976A6.6,6.6,0,0,0,89.1,18.267c-3.448,0-5.876,2.92-5.876,6.51v.069c0,3.7,2.428,6.581,5.876,6.581,2.569,0,4.082-1.2,5.561-2.991L99.8,32.095A12.968,12.968,0,0,1,76.19,24.917" transform="translate(-2.968 -0.469)"/><path class="c" d="M117.986,27.462l-2.745-7-2.78,7ZM112,12.367h6.58L129.07,37.174h-7.319l-1.794-4.4h-9.5l-1.76,4.4h-7.178Z" transform="translate(-3.955 -0.482)"/><path class="c" d="M144.6,31.692c2.076,0,3.272-.809,3.272-2.252v-.07c0-1.337-1.056-2.216-3.343-2.216h-5.207v4.538Zm-.986-9.324c2.076,0,3.238-.7,3.238-2.147v-.07c0-1.337-1.056-2.111-3.1-2.111h-4.433v4.329ZM132.673,12.55h12.633c3.1,0,5.278.775,6.721,2.217a5.4,5.4,0,0,1,1.584,3.977v.07a5.7,5.7,0,0,1-3.8,5.489c2.99.985,4.891,2.674,4.891,6.016v.071c0,4.223-3.448,6.791-9.325,6.791h-12.7Z" transform="translate(-5.169 -0.489)"/><path class="c" d="M156.582,12.547H163.8L168.089,26.8l4.75-14.321h5.876L183.465,26.8l4.293-14.251h7.073L186.6,37.354h-5.946l-4.962-14.18-4.926,14.18h-5.947Z" transform="translate(-6.1 -0.486)"/><rect class="c" width="6.861" height="24.631" transform="translate(191.576 12.061)"/><path class="c" d="M83.458,47.068l-1.67,3.9h3.355Zm5.107,7.764H86.758l-.988-2.352H81.162l-1,2.352H78.409l4.284-9.809h1.588Z" transform="translate(-3.055 -1.754)"/><path class="c" d="M94.832,45.067h1.447l2.393,7.249,2.322-7.221h1.8l-3.4,9.809H97.921l-2.393-7-2.394,7H91.659l-3.4-9.809h1.851l2.323,7.221Z" transform="translate(-3.439 -1.756)"/><path class="c" d="M107.716,47.068l-1.67,3.9H109.4Zm5.106,7.764h-1.807l-.988-2.352H105.42l-1,2.352h-1.752l4.284-9.809h1.588Z" transform="translate(-4 -1.754)"/><path class="c" d="M118.811,46.654h-2.492v3.269h2.505c1.223,0,2-.64,2-1.641,0-1.072-.752-1.628-2.017-1.628m2.044,8.181-2.393-3.4h-2.143v3.4h-1.711V45.1h4.34c2.24,0,3.618,1.183,3.618,3.09a2.916,2.916,0,0,1-2.323,2.963l2.628,3.688Z" transform="translate(-4.465 -1.757)"/><path class="c" d="M128.342,46.654h-1.919v6.623h1.919a3.312,3.312,0,1,0,0-6.623m0,8.181H124.71V45.1h3.632a4.879,4.879,0,1,1,0,9.74" transform="translate(-4.859 -1.757)"/><rect class="c" width="1.711" height="9.74" transform="translate(130.48 43.338)"/><path class="c" d="M146.7,45.1h1.682v9.74h-1.432l-5.37-6.93v6.93H139.9V45.1h1.585l5.219,6.735Z" transform="translate(-5.45 -1.757)"/><path class="c" d="M155.571,55a4.837,4.837,0,0,1-5.052-5.022,4.965,4.965,0,0,1,5.023-5.051,5.259,5.259,0,0,1,3.743,1.322L158.2,47.538a3.817,3.817,0,0,0-2.728-1.044,3.29,3.29,0,0,0-3.158,3.451,3.257,3.257,0,0,0,3.313,3.491,3.971,3.971,0,0,0,2.351-.737V50.878h-2.491v-1.49h4.147v4.091A6.208,6.208,0,0,1,155.571,55" transform="translate(-5.864 -1.75)"/><path class="c" d="M172.338,51.969c0-.835-.654-1.321-2-1.321h-2.712v2.671h2.837c1.17,0,1.88-.458,1.88-1.349m-.544-4.1c0-.794-.611-1.252-1.711-1.252h-2.462V49.2h2.337c1.1,0,1.836-.432,1.836-1.336m1.712-.279a2.308,2.308,0,0,1-1.392,2.184,2.393,2.393,0,0,1,1.935,2.38c0,1.753-1.433,2.685-3.6,2.685h-4.506V45.1H170.3c1.962,0,3.2.96,3.2,2.49" transform="translate(-6.465 -1.757)"/><path class="c" d="M180.655,46.494a3.3,3.3,0,0,0-3.285,3.451,3.341,3.341,0,0,0,3.314,3.478,3.293,3.293,0,0,0,3.282-3.45,3.341,3.341,0,0,0-3.311-3.479m0,8.5a5.037,5.037,0,1,1,5.106-5.05A4.947,4.947,0,0,1,180.655,55" transform="translate(-6.84 -1.75)"/><path class="c" d="M191.6,46.654h-1.921v6.623H191.6a3.312,3.312,0,1,0,0-6.623m0,8.181h-3.632V45.1H191.6a4.879,4.879,0,1,1,0,9.74" transform="translate(-7.323 -1.757)"/><path class="c" d="M202.536,54.835h-1.725V51l-3.868-5.9h2.017l2.726,4.314,2.754-4.314H206.4l-3.867,5.859Z" transform="translate(-7.673 -1.757)"/><path class="c" d="M33.4,49.872A16.472,16.472,0,1,1,44.785,21.5a2.237,2.237,0,1,1-3.093,3.232,12,12,0,1,0,.3,17.052,2.237,2.237,0,1,1,3.2,3.124A16.342,16.342,0,0,1,33.4,49.872" transform="translate(-0.66 -0.66)"/><path class="c" d="M33.07,57.676a24.42,24.42,0,0,1-10.2-2.209,24.609,24.609,0,1,1,29.786-37.3,2.237,2.237,0,1,1-3.559,2.711A20.139,20.139,0,1,0,33.07,53.2a2.237,2.237,0,1,1,0,4.474" transform="translate(-0.33 -0.33)"/><path class="c" d="M33.07,57.676a24.42,24.42,0,0,1-10.2-2.209,24.609,24.609,0,1,1,29.786-37.3,2.237,2.237,0,1,1-3.559,2.711A20.139,20.139,0,1,0,33.07,53.2a2.237,2.237,0,1,1,0,4.474" transform="translate(-0.33 -0.33)"/><path class="c" d="M32.741,65.48A32.74,32.74,0,1,1,44.966,2.359a2.237,2.237,0,0,1-1.671,4.15,28.27,28.27,0,1,0-10.554,54.5,28.044,28.044,0,0,0,20.288-8.585,2.237,2.237,0,0,1,3.211,3.116,32.478,32.478,0,0,1-23.5,9.943" transform="translate(0 0)"/></g></g></svg>