<svg xmlns="http://www.w3.org/2000/svg" xmlns:xlink="http://www.w3.org/1999/xlink" width="341" height="238" viewBox="0 0 341 238"><defs><style>.a{fill:#7f7f7f;}.b,.g{fill:#fff;}.b{stroke:#707070;}.c{fill:none;}.d{clip-path:url(#a);}.e{clip-path:url(#b);}.f{opacity:0.159;clip-path:url(#c);}</style><clipPath id="a"><rect class="a" width="341" height="238" transform="translate(-0.192)"/></clipPath><clipPath id="b"><ellipse class="b" cx="126.5" cy="119.5" rx="126.5" ry="119.5" transform="translate(-0.302 -0.477)"/></clipPath><clipPath id="c"><rect class="c" width="349" height="269"/></clipPath></defs><g class="d" transform="translate(0.192)"><g class="e" transform="translate(150.11 -71.523)"><g class="f" transform="translate(-9.302 -5.477)"><g transform="translate(-131 -807)"><circle class="g" cx="5" cy="5" r="5" transform="translate(131 807)"/></g><g transform="translate(-101 -807)"><circle class="g" cx="5" cy="5" r="5" transform="translate(131 807)"/></g><g transform="translate(-71 -807)"><circle class="g" cx="5" cy="5" r="5" transform="translate(131 807)"/></g><g transform="translate(-41 -807)"><circle class="g" cx="5" cy="5" r="5" transform="translate(131 807)"/></g><g transform="translate(-11 -807)"><circle class="g" cx="5" cy="5" r="5" transform="translate(131 807)"/></g><g transform="translate(19 -807)"><circle class="g" cx="5" cy="5" r="5" transform="translate(131 807)"/></g><g transform="translate(49 -807)"><circle class="g" cx="5" cy="5" r="5" transform="translate(131 807)"/></g><g transform="translate(79 -807)"><circle class="g" cx="5" cy="5" r="5" transform="translate(131 807)"/></g><g transform="translate(109 -807)"><circle class="g" cx="5" cy="5" r="5" transform="translate(131 807)"/></g><g transform="translate(139 -807)"><circle class="g" cx="5" cy="5" r="5" transform="translate(131 807)"/></g><g transform="translate(169 -807)"><circle class="g" cx="5" cy="5" r="5" transform="translate(131 807)"/></g><g transform="translate(199 -807)"><circle class="g" cx="5" cy="5" r="5" transform="translate(131 807)"/></g><g transform="translate(-131 -777)"><circle class="g" cx="5" cy="5" r="5" transform="translate(131 807)"/></g><g transform="translate(-101 -777)"><circle class="g" cx="5" cy="5" r="5" transform="translate(131 807)"/></g><g transform="translate(-71 -777)"><circle class="g" cx="5" cy="5" r="5" transform="translate(131 807)"/></g><g transform="translate(-41 -777)"><circle class="g" cx="5" cy="5" r="5" transform="translate(131 807)"/></g><g transform="translate(-11 -777)"><circle class="g" cx="5" cy="5" r="5" transform="translate(131 807)"/></g><g transform="translate(19 -777)"><circle class="g" cx="5" cy="5" r="5" transform="translate(131 807)"/></g><g transform="translate(49 -777)"><circle class="g" cx="5" cy="5" r="5" transform="translate(131 807)"/></g><g transform="translate(79 -777)"><circle class="g" cx="5" cy="5" r="5" transform="translate(131 807)"/></g><g transform="translate(109 -777)"><circle class="g" cx="5" cy="5" r="5" transform="translate(131 807)"/></g><g transform="translate(139 -777)"><circle class="g" cx="5" cy="5" r="5" transform="translate(131 807)"/></g><g transform="translate(169 -777)"><circle class="g" cx="5" cy="5" r="5" transform="translate(131 807)"/></g><g transform="translate(199 -777)"><circle class="g" cx="5" cy="5" r="5" transform="translate(131 807)"/></g><g transform="translate(-131 -747)"><circle class="g" cx="5" cy="5" r="5" transform="translate(131 807)"/></g><g transform="translate(-101 -747)"><circle class="g" cx="5" cy="5" r="5" transform="translate(131 807)"/></g><g transform="translate(-71 -747)"><circle class="g" cx="5" cy="5" r="5" transform="translate(131 807)"/></g><g transform="translate(-41 -747)"><circle class="g" cx="5" cy="5" r="5" transform="translate(131 807)"/></g><g transform="translate(-11 -747)"><circle class="g" cx="5" cy="5" r="5" transform="translate(131 807)"/></g><g transform="translate(19 -747)"><circle class="g" cx="5" cy="5" r="5" transform="translate(131 807)"/></g><g transform="translate(49 -747)"><circle class="g" cx="5" cy="5" r="5" transform="translate(131 807)"/></g><g transform="translate(79 -747)"><circle class="g" cx="5" cy="5" r="5" transform="translate(131 807)"/></g><g transform="translate(109 -747)"><circle class="g" cx="5" cy="5" r="5" transform="translate(131 807)"/></g><g transform="translate(139 -747)"><circle class="g" cx="5" cy="5" r="5" transform="translate(131 807)"/></g><g transform="translate(169 -747)"><circle class="g" cx="5" cy="5" r="5" transform="translate(131 807)"/></g><g transform="translate(199 -747)"><circle class="g" cx="5" cy="5" r="5" transform="translate(131 807)"/></g><g transform="translate(-131 -717)"><circle class="g" cx="5" cy="5" r="5" transform="translate(131 807)"/></g><g transform="translate(-101 -717)"><circle class="g" cx="5" cy="5" r="5" transform="translate(131 807)"/></g><g transform="translate(-71 -717)"><circle class="g" cx="5" cy="5" r="5" transform="translate(131 807)"/></g><g transform="translate(-41 -717)"><circle class="g" cx="5" cy="5" r="5" transform="translate(131 807)"/></g><g transform="translate(-11 -717)"><circle class="g" cx="5" cy="5" r="5" transform="translate(131 807)"/></g><g transform="translate(19 -717)"><circle class="g" cx="5" cy="5" r="5" transform="translate(131 807)"/></g><g transform="translate(49 -717)"><circle class="g" cx="5" cy="5" r="5" transform="translate(131 807)"/></g><g transform="translate(79 -717)"><circle class="g" cx="5" cy="5" r="5" transform="translate(131 807)"/></g><g transform="translate(109 -717)"><circle class="g" cx="5" cy="5" r="5" transform="translate(131 807)"/></g><g transform="translate(139 -717)"><circle class="g" cx="5" cy="5" r="5" transform="translate(131 807)"/></g><g transform="translate(169 -717)"><circle class="g" cx="5" cy="5" r="5" transform="translate(131 807)"/></g><g transform="translate(199 -717)"><circle class="g" cx="5" cy="5" r="5" transform="translate(131 807)"/></g><g transform="translate(-131 -687)"><circle class="g" cx="5" cy="5" r="5" transform="translate(131 807)"/></g><g transform="translate(-101 -687)"><circle class="g" cx="5" cy="5" r="5" transform="translate(131 807)"/></g><g transform="translate(-71 -687)"><circle class="g" cx="5" cy="5" r="5" transform="translate(131 807)"/></g><g transform="translate(-41 -687)"><circle class="g" cx="5" cy="5" r="5" transform="translate(131 807)"/></g><g transform="translate(-11 -687)"><circle class="g" cx="5" cy="5" r="5" transform="translate(131 807)"/></g><g transform="translate(19 -687)"><circle class="g" cx="5" cy="5" r="5" transform="translate(131 807)"/></g><g transform="translate(49 -687)"><circle class="g" cx="5" cy="5" r="5" transform="translate(131 807)"/></g><g transform="translate(79 -687)"><circle class="g" cx="5" cy="5" r="5" transform="translate(131 807)"/></g><g transform="translate(109 -687)"><circle class="g" cx="5" cy="5" r="5" transform="translate(131 807)"/></g><g transform="translate(139 -687)"><circle class="g" cx="5" cy="5" r="5" transform="translate(131 807)"/></g><g transform="translate(169 -687)"><circle class="g" cx="5" cy="5" r="5" transform="translate(131 807)"/></g><g transform="translate(199 -687)"><circle class="g" cx="5" cy="5" r="5" transform="translate(131 807)"/></g><g transform="translate(-131 -657)"><circle class="g" cx="5" cy="5" r="5" transform="translate(131 807)"/></g><g transform="translate(-101 -657)"><circle class="g" cx="5" cy="5" r="5" transform="translate(131 807)"/></g><g transform="translate(-71 -657)"><circle class="g" cx="5" cy="5" r="5" transform="translate(131 807)"/></g><g transform="translate(-41 -657)"><circle class="g" cx="5" cy="5" r="5" transform="translate(131 807)"/></g><g transform="translate(-11 -657)"><circle class="g" cx="5" cy="5" r="5" transform="translate(131 807)"/></g><g transform="translate(19 -657)"><circle class="g" cx="5" cy="5" r="5" transform="translate(131 807)"/></g><g transform="translate(49 -657)"><circle class="g" cx="5" cy="5" r="5" transform="translate(131 807)"/></g><g transform="translate(79 -657)"><circle class="g" cx="5" cy="5" r="5" transform="translate(131 807)"/></g><g transform="translate(109 -657)"><circle class="g" cx="5" cy="5" r="5" transform="translate(131 807)"/></g><g transform="translate(139 -657)"><circle class="g" cx="5" cy="5" r="5" transform="translate(131 807)"/></g><g transform="translate(169 -657)"><circle class="g" cx="5" cy="5" r="5" transform="translate(131 807)"/></g><g transform="translate(199 -657)"><circle class="g" cx="5" cy="5" r="5" transform="translate(131 807)"/></g><g transform="translate(-131 -627)"><circle class="g" cx="5" cy="5" r="5" transform="translate(131 807)"/></g><g transform="translate(-101 -627)"><circle class="g" cx="5" cy="5" r="5" transform="translate(131 807)"/></g><g transform="translate(-71 -627)"><circle class="g" cx="5" cy="5" r="5" transform="translate(131 807)"/></g><g transform="translate(-41 -627)"><circle class="g" cx="5" cy="5" r="5" transform="translate(131 807)"/></g><g transform="translate(-11 -627)"><circle class="g" cx="5" cy="5" r="5" transform="translate(131 807)"/></g><g transform="translate(19 -627)"><circle class="g" cx="5" cy="5" r="5" transform="translate(131 807)"/></g><g transform="translate(49 -627)"><circle class="g" cx="5" cy="5" r="5" transform="translate(131 807)"/></g><g transform="translate(79 -627)"><circle class="g" cx="5" cy="5" r="5" transform="translate(131 807)"/></g><g transform="translate(109 -627)"><circle class="g" cx="5" cy="5" r="5" transform="translate(131 807)"/></g><g transform="translate(139 -627)"><circle class="g" cx="5" cy="5" r="5" transform="translate(131 807)"/></g><g transform="translate(169 -627)"><circle class="g" cx="5" cy="5" r="5" transform="translate(131 807)"/></g><g transform="translate(199 -627)"><circle class="g" cx="5" cy="5" r="5" transform="translate(131 807)"/></g><g transform="translate(-131 -597)"><circle class="g" cx="5" cy="5" r="5" transform="translate(131 807)"/></g><g transform="translate(-101 -597)"><circle class="g" cx="5" cy="5" r="5" transform="translate(131 807)"/></g><g transform="translate(-71 -597)"><circle class="g" cx="5" cy="5" r="5" transform="translate(131 807)"/></g><g transform="translate(-41 -597)"><circle class="g" cx="5" cy="5" r="5" transform="translate(131 807)"/></g><g transform="translate(-11 -597)"><circle class="g" cx="5" cy="5" r="5" transform="translate(131 807)"/></g><g transform="translate(19 -597)"><circle class="g" cx="5" cy="5" r="5" transform="translate(131 807)"/></g><g transform="translate(49 -597)"><circle class="g" cx="5" cy="5" r="5" transform="translate(131 807)"/></g><g transform="translate(79 -597)"><circle class="g" cx="5" cy="5" r="5" transform="translate(131 807)"/></g><g transform="translate(109 -597)"><circle class="g" cx="5" cy="5" r="5" transform="translate(131 807)"/></g><g transform="translate(139 -597)"><circle class="g" cx="5" cy="5" r="5" transform="translate(131 807)"/></g><g transform="translate(169 -597)"><circle class="g" cx="5" cy="5" r="5" transform="translate(131 807)"/></g><g transform="translate(199 -597)"><circle class="g" cx="5" cy="5" r="5" transform="translate(131 807)"/></g><g transform="translate(-131 -567)"><circle class="g" cx="5" cy="5" r="5" transform="translate(131 807)"/></g><g transform="translate(-101 -567)"><circle class="g" cx="5" cy="5" r="5" transform="translate(131 807)"/></g><g transform="translate(-71 -567)"><circle class="g" cx="5" cy="5" r="5" transform="translate(131 807)"/></g><g transform="translate(-41 -567)"><circle class="g" cx="5" cy="5" r="5" transform="translate(131 807)"/></g><g transform="translate(-11 -567)"><circle class="g" cx="5" cy="5" r="5" transform="translate(131 807)"/></g><g transform="translate(19 -567)"><circle class="g" cx="5" cy="5" r="5" transform="translate(131 807)"/></g><g transform="translate(49 -567)"><circle class="g" cx="5" cy="5" r="5" transform="translate(131 807)"/></g><g transform="translate(79 -567)"><circle class="g" cx="5" cy="5" r="5" transform="translate(131 807)"/></g><g transform="translate(109 -567)"><circle class="g" cx="5" cy="5" r="5" transform="translate(131 807)"/></g><g transform="translate(139 -567)"><circle class="g" cx="5" cy="5" r="5" transform="translate(131 807)"/></g><g transform="translate(169 -567)"><circle class="g" cx="5" cy="5" r="5" transform="translate(131 807)"/></g><g transform="translate(199 -567)"><circle class="g" cx="5" cy="5" r="5" transform="translate(131 807)"/></g></g></g></g></svg>