<svg xmlns="http://www.w3.org/2000/svg" xmlns:xlink="http://www.w3.org/1999/xlink" width="1363" height="678" viewBox="0 0 1363 678"><defs><style>.a{opacity:0.21;mix-blend-mode:multiply;isolation:isolate;fill:url(#a);}.b{clip-path:url(#b);}.c{fill:#47bcc6;}</style><linearGradient id="a" x1="0.088" y1="0.5" x2="0.914" y2="0.445" gradientUnits="objectBoundingBox"><stop offset="0" stop-color="#1d1d1d"/><stop offset="1" stop-color="#47bcc6"/></linearGradient><clipPath id="b"><rect class="a" width="1363" height="678" transform="translate(0 1811)"/></clipPath></defs><g class="b" transform="translate(0 -1811)"><path class="c" d="M17.145,480.362c0-255.424,207.807-463.217,463.232-463.217a460.891,460.891,0,0,1,172.97,33.381A31.648,31.648,0,0,1,629.7,109.238a397.64,397.64,0,0,0-149.324-28.8c-220.521,0-399.922,179.4-399.922,399.922S259.856,880.3,480.377,880.3c109.091,0,211.043-43.145,287.037-121.464a31.651,31.651,0,0,1,45.429,44.083c-88.016,90.721-206.095,140.676-332.466,140.676C224.952,943.592,17.145,735.785,17.145,480.362ZM336,797.249c-123.79-56.483-203.768-180.87-203.768-316.883,0-191.953,156.178-348.131,348.143-348.131,109.593,0,210.567,50.051,277.057,137.318a31.648,31.648,0,1,1-50.35,38.358C652.667,236.485,570.037,195.53,480.376,195.53c-157.062,0-284.835,127.787-284.835,284.836a285.7,285.7,0,0,0,166.729,259.3,282.747,282.747,0,0,0,118.106,25.549,31.648,31.648,0,1,1,0,63.3A345.482,345.482,0,0,1,336,797.249ZM247.319,480.364c0-128.507,104.549-233.042,233.057-233.042a231.9,231.9,0,0,1,161.073,64.627,31.645,31.645,0,1,1-43.756,45.728,168.94,168.94,0,0,0-117.317-47.061c-93.6,0-169.749,76.145-169.749,169.748s76.145,169.762,169.749,169.762a168.462,168.462,0,0,0,121.491-51.193,31.644,31.644,0,1,1,45.292,44.2,231.211,231.211,0,0,1-166.784,70.284C351.868,713.421,247.319,608.872,247.319,480.364Z" transform="translate(754.563 1390.586)"/></g></svg>