<svg xmlns="http://www.w3.org/2000/svg" xmlns:xlink="http://www.w3.org/1999/xlink" width="103" height="282" viewBox="0 0 103 282"><defs><style>.a{fill:none;}.b{opacity:0.067;clip-path:url(#a);}.c{fill:#7f7f7f;}</style><clipPath id="a"><rect class="a" width="103" height="282"/></clipPath></defs><g class="b"><g transform="translate(-131 -807)"><circle class="c" cx="3.5" cy="3.5" r="3.5" transform="translate(131 807)"/></g><g transform="translate(-101 -807)"><circle class="c" cx="3.5" cy="3.5" r="3.5" transform="translate(131 807)"/></g><g transform="translate(-71 -807)"><circle class="c" cx="3.5" cy="3.5" r="3.5" transform="translate(131 807)"/></g><g transform="translate(-41 -807)"><circle class="c" cx="3.5" cy="3.5" r="3.5" transform="translate(131 807)"/></g><g transform="translate(-131 -777)"><circle class="c" cx="3.5" cy="3.5" r="3.5" transform="translate(131 807)"/></g><g transform="translate(-101 -777)"><circle class="c" cx="3.5" cy="3.5" r="3.5" transform="translate(131 807)"/></g><g transform="translate(-71 -777)"><circle class="c" cx="3.5" cy="3.5" r="3.5" transform="translate(131 807)"/></g><g transform="translate(-41 -777)"><circle class="c" cx="3.5" cy="3.5" r="3.5" transform="translate(131 807)"/></g><g transform="translate(-131 -747)"><circle class="c" cx="3.5" cy="3.5" r="3.5" transform="translate(131 807)"/></g><g transform="translate(-101 -747)"><circle class="c" cx="3.5" cy="3.5" r="3.5" transform="translate(131 807)"/></g><g transform="translate(-71 -747)"><circle class="c" cx="3.5" cy="3.5" r="3.5" transform="translate(131 807)"/></g><g transform="translate(-41 -747)"><circle class="c" cx="3.5" cy="3.5" r="3.5" transform="translate(131 807)"/></g><g transform="translate(-131 -717)"><circle class="c" cx="3.5" cy="3.5" r="3.5" transform="translate(131 807)"/></g><g transform="translate(-101 -717)"><circle class="c" cx="3.5" cy="3.5" r="3.5" transform="translate(131 807)"/></g><g transform="translate(-71 -717)"><circle class="c" cx="3.5" cy="3.5" r="3.5" transform="translate(131 807)"/></g><g transform="translate(-41 -717)"><circle class="c" cx="3.5" cy="3.5" r="3.5" transform="translate(131 807)"/></g><g transform="translate(-131 -687)"><circle class="c" cx="3.5" cy="3.5" r="3.5" transform="translate(131 807)"/></g><g transform="translate(-101 -687)"><circle class="c" cx="3.5" cy="3.5" r="3.5" transform="translate(131 807)"/></g><g transform="translate(-71 -687)"><circle class="c" cx="3.5" cy="3.5" r="3.5" transform="translate(131 807)"/></g><g transform="translate(-41 -687)"><circle class="c" cx="3.5" cy="3.5" r="3.5" transform="translate(131 807)"/></g><g transform="translate(-131 -657)"><circle class="c" cx="3.5" cy="3.5" r="3.5" transform="translate(131 807)"/></g><g transform="translate(-101 -657)"><circle class="c" cx="3.5" cy="3.5" r="3.5" transform="translate(131 807)"/></g><g transform="translate(-71 -657)"><circle class="c" cx="3.5" cy="3.5" r="3.5" transform="translate(131 807)"/></g><g transform="translate(-41 -657)"><circle class="c" cx="3.5" cy="3.5" r="3.5" transform="translate(131 807)"/></g><g transform="translate(-131 -627)"><circle class="c" cx="3.5" cy="3.5" r="3.5" transform="translate(131 807)"/></g><g transform="translate(-101 -627)"><circle class="c" cx="3.5" cy="3.5" r="3.5" transform="translate(131 807)"/></g><g transform="translate(-71 -627)"><circle class="c" cx="3.5" cy="3.5" r="3.5" transform="translate(131 807)"/></g><g transform="translate(-41 -627)"><circle class="c" cx="3.5" cy="3.5" r="3.5" transform="translate(131 807)"/></g><g transform="translate(-131 -597)"><circle class="c" cx="3.5" cy="3.5" r="3.5" transform="translate(131 807)"/></g><g transform="translate(-101 -597)"><circle class="c" cx="3.5" cy="3.5" r="3.5" transform="translate(131 807)"/></g><g transform="translate(-71 -597)"><circle class="c" cx="3.5" cy="3.5" r="3.5" transform="translate(131 807)"/></g><g transform="translate(-41 -597)"><circle class="c" cx="3.5" cy="3.5" r="3.5" transform="translate(131 807)"/></g><g transform="translate(-131 -567)"><circle class="c" cx="3.5" cy="3.5" r="3.5" transform="translate(131 807)"/></g><g transform="translate(-101 -567)"><circle class="c" cx="3.5" cy="3.5" r="3.5" transform="translate(131 807)"/></g><g transform="translate(-71 -567)"><circle class="c" cx="3.5" cy="3.5" r="3.5" transform="translate(131 807)"/></g><g transform="translate(-41 -567)"><circle class="c" cx="3.5" cy="3.5" r="3.5" transform="translate(131 807)"/></g><g transform="translate(-131 -537)"><circle class="c" cx="3.5" cy="3.5" r="3.5" transform="translate(131 807)"/></g><g transform="translate(-101 -537)"><circle class="c" cx="3.5" cy="3.5" r="3.5" transform="translate(131 807)"/></g><g transform="translate(-71 -537)"><circle class="c" cx="3.5" cy="3.5" r="3.5" transform="translate(131 807)"/></g><g transform="translate(-41 -537)"><circle class="c" cx="3.5" cy="3.5" r="3.5" transform="translate(131 807)"/></g></g></svg>