<svg xmlns="http://www.w3.org/2000/svg" xmlns:xlink="http://www.w3.org/1999/xlink" width="266" height="685" viewBox="0 0 266 685"><defs><style>.a{fill:none;}.b{opacity:0.163;clip-path:url(#a);}.c{fill:#fff;}</style><clipPath id="a"><rect class="a" width="266" height="685"/></clipPath></defs><g class="b"><g transform="translate(-131 -807)"><circle class="c" cx="3.5" cy="3.5" r="3.5" transform="translate(131 807)"/></g><g transform="translate(-101 -807)"><circle class="c" cx="3.5" cy="3.5" r="3.5" transform="translate(131 807)"/></g><g transform="translate(-71 -807)"><circle class="c" cx="3.5" cy="3.5" r="3.5" transform="translate(131 807)"/></g><g transform="translate(-41 -807)"><circle class="c" cx="3.5" cy="3.5" r="3.5" transform="translate(131 807)"/></g><g transform="translate(-11 -807)"><circle class="c" cx="3.5" cy="3.5" r="3.5" transform="translate(131 807)"/></g><g transform="translate(19 -807)"><circle class="c" cx="3.5" cy="3.5" r="3.5" transform="translate(131 807)"/></g><g transform="translate(49 -807)"><circle class="c" cx="3.5" cy="3.5" r="3.5" transform="translate(131 807)"/></g><g transform="translate(79 -807)"><circle class="c" cx="3.5" cy="3.5" r="3.5" transform="translate(131 807)"/></g><g transform="translate(109 -807)"><circle class="c" cx="3.5" cy="3.5" r="3.5" transform="translate(131 807)"/></g><g transform="translate(-131 -777)"><circle class="c" cx="3.5" cy="3.5" r="3.5" transform="translate(131 807)"/></g><g transform="translate(-101 -777)"><circle class="c" cx="3.5" cy="3.5" r="3.5" transform="translate(131 807)"/></g><g transform="translate(-71 -777)"><circle class="c" cx="3.5" cy="3.5" r="3.5" transform="translate(131 807)"/></g><g transform="translate(-41 -777)"><circle class="c" cx="3.5" cy="3.5" r="3.5" transform="translate(131 807)"/></g><g transform="translate(-11 -777)"><circle class="c" cx="3.5" cy="3.5" r="3.5" transform="translate(131 807)"/></g><g transform="translate(19 -777)"><circle class="c" cx="3.5" cy="3.5" r="3.5" transform="translate(131 807)"/></g><g transform="translate(49 -777)"><circle class="c" cx="3.5" cy="3.5" r="3.5" transform="translate(131 807)"/></g><g transform="translate(79 -777)"><circle class="c" cx="3.5" cy="3.5" r="3.5" transform="translate(131 807)"/></g><g transform="translate(109 -777)"><circle class="c" cx="3.5" cy="3.5" r="3.5" transform="translate(131 807)"/></g><g transform="translate(-131 -747)"><circle class="c" cx="3.5" cy="3.5" r="3.5" transform="translate(131 807)"/></g><g transform="translate(-101 -747)"><circle class="c" cx="3.5" cy="3.5" r="3.5" transform="translate(131 807)"/></g><g transform="translate(-71 -747)"><circle class="c" cx="3.5" cy="3.5" r="3.5" transform="translate(131 807)"/></g><g transform="translate(-41 -747)"><circle class="c" cx="3.5" cy="3.5" r="3.5" transform="translate(131 807)"/></g><g transform="translate(-11 -747)"><circle class="c" cx="3.5" cy="3.5" r="3.5" transform="translate(131 807)"/></g><g transform="translate(19 -747)"><circle class="c" cx="3.5" cy="3.5" r="3.5" transform="translate(131 807)"/></g><g transform="translate(49 -747)"><circle class="c" cx="3.5" cy="3.5" r="3.5" transform="translate(131 807)"/></g><g transform="translate(79 -747)"><circle class="c" cx="3.5" cy="3.5" r="3.5" transform="translate(131 807)"/></g><g transform="translate(109 -747)"><circle class="c" cx="3.5" cy="3.5" r="3.5" transform="translate(131 807)"/></g><g transform="translate(-131 -717)"><circle class="c" cx="3.5" cy="3.5" r="3.5" transform="translate(131 807)"/></g><g transform="translate(-101 -717)"><circle class="c" cx="3.5" cy="3.5" r="3.5" transform="translate(131 807)"/></g><g transform="translate(-71 -717)"><circle class="c" cx="3.5" cy="3.5" r="3.5" transform="translate(131 807)"/></g><g transform="translate(-41 -717)"><circle class="c" cx="3.5" cy="3.5" r="3.5" transform="translate(131 807)"/></g><g transform="translate(-11 -717)"><circle class="c" cx="3.5" cy="3.5" r="3.5" transform="translate(131 807)"/></g><g transform="translate(19 -717)"><circle class="c" cx="3.5" cy="3.5" r="3.5" transform="translate(131 807)"/></g><g transform="translate(49 -717)"><circle class="c" cx="3.5" cy="3.5" r="3.5" transform="translate(131 807)"/></g><g transform="translate(79 -717)"><circle class="c" cx="3.5" cy="3.5" r="3.5" transform="translate(131 807)"/></g><g transform="translate(109 -717)"><circle class="c" cx="3.5" cy="3.5" r="3.5" transform="translate(131 807)"/></g><g transform="translate(-131 -687)"><circle class="c" cx="3.5" cy="3.5" r="3.5" transform="translate(131 807)"/></g><g transform="translate(-101 -687)"><circle class="c" cx="3.5" cy="3.5" r="3.5" transform="translate(131 807)"/></g><g transform="translate(-71 -687)"><circle class="c" cx="3.5" cy="3.5" r="3.5" transform="translate(131 807)"/></g><g transform="translate(-41 -687)"><circle class="c" cx="3.5" cy="3.5" r="3.5" transform="translate(131 807)"/></g><g transform="translate(-11 -687)"><circle class="c" cx="3.5" cy="3.5" r="3.5" transform="translate(131 807)"/></g><g transform="translate(19 -687)"><circle class="c" cx="3.5" cy="3.5" r="3.5" transform="translate(131 807)"/></g><g transform="translate(49 -687)"><circle class="c" cx="3.5" cy="3.5" r="3.5" transform="translate(131 807)"/></g><g transform="translate(79 -687)"><circle class="c" cx="3.5" cy="3.5" r="3.5" transform="translate(131 807)"/></g><g transform="translate(109 -687)"><circle class="c" cx="3.5" cy="3.5" r="3.5" transform="translate(131 807)"/></g><g transform="translate(-131 -657)"><circle class="c" cx="3.5" cy="3.5" r="3.5" transform="translate(131 807)"/></g><g transform="translate(-101 -657)"><circle class="c" cx="3.5" cy="3.5" r="3.5" transform="translate(131 807)"/></g><g transform="translate(-71 -657)"><circle class="c" cx="3.5" cy="3.5" r="3.5" transform="translate(131 807)"/></g><g transform="translate(-41 -657)"><circle class="c" cx="3.5" cy="3.5" r="3.5" transform="translate(131 807)"/></g><g transform="translate(-11 -657)"><circle class="c" cx="3.5" cy="3.5" r="3.5" transform="translate(131 807)"/></g><g transform="translate(19 -657)"><circle class="c" cx="3.5" cy="3.5" r="3.5" transform="translate(131 807)"/></g><g transform="translate(49 -657)"><circle class="c" cx="3.5" cy="3.5" r="3.5" transform="translate(131 807)"/></g><g transform="translate(79 -657)"><circle class="c" cx="3.5" cy="3.5" r="3.5" transform="translate(131 807)"/></g><g transform="translate(109 -657)"><circle class="c" cx="3.5" cy="3.5" r="3.5" transform="translate(131 807)"/></g><g transform="translate(-131 -627)"><circle class="c" cx="3.5" cy="3.5" r="3.5" transform="translate(131 807)"/></g><g transform="translate(-101 -627)"><circle class="c" cx="3.5" cy="3.5" r="3.5" transform="translate(131 807)"/></g><g transform="translate(-71 -627)"><circle class="c" cx="3.5" cy="3.5" r="3.5" transform="translate(131 807)"/></g><g transform="translate(-41 -627)"><circle class="c" cx="3.5" cy="3.5" r="3.5" transform="translate(131 807)"/></g><g transform="translate(-11 -627)"><circle class="c" cx="3.5" cy="3.5" r="3.5" transform="translate(131 807)"/></g><g transform="translate(19 -627)"><circle class="c" cx="3.5" cy="3.5" r="3.5" transform="translate(131 807)"/></g><g transform="translate(49 -627)"><circle class="c" cx="3.5" cy="3.5" r="3.5" transform="translate(131 807)"/></g><g transform="translate(79 -627)"><circle class="c" cx="3.5" cy="3.5" r="3.5" transform="translate(131 807)"/></g><g transform="translate(109 -627)"><circle class="c" cx="3.5" cy="3.5" r="3.5" transform="translate(131 807)"/></g><g transform="translate(-131 -597)"><circle class="c" cx="3.5" cy="3.5" r="3.5" transform="translate(131 807)"/></g><g transform="translate(-101 -597)"><circle class="c" cx="3.5" cy="3.5" r="3.5" transform="translate(131 807)"/></g><g transform="translate(-71 -597)"><circle class="c" cx="3.5" cy="3.5" r="3.5" transform="translate(131 807)"/></g><g transform="translate(-41 -597)"><circle class="c" cx="3.5" cy="3.5" r="3.5" transform="translate(131 807)"/></g><g transform="translate(-11 -597)"><circle class="c" cx="3.5" cy="3.5" r="3.5" transform="translate(131 807)"/></g><g transform="translate(19 -597)"><circle class="c" cx="3.5" cy="3.5" r="3.5" transform="translate(131 807)"/></g><g transform="translate(49 -597)"><circle class="c" cx="3.5" cy="3.5" r="3.5" transform="translate(131 807)"/></g><g transform="translate(79 -597)"><circle class="c" cx="3.5" cy="3.5" r="3.5" transform="translate(131 807)"/></g><g transform="translate(109 -597)"><circle class="c" cx="3.5" cy="3.5" r="3.5" transform="translate(131 807)"/></g><g transform="translate(-131 -567)"><circle class="c" cx="3.5" cy="3.5" r="3.5" transform="translate(131 807)"/></g><g transform="translate(-101 -567)"><circle class="c" cx="3.5" cy="3.5" r="3.5" transform="translate(131 807)"/></g><g transform="translate(-71 -567)"><circle class="c" cx="3.5" cy="3.5" r="3.5" transform="translate(131 807)"/></g><g transform="translate(-41 -567)"><circle class="c" cx="3.5" cy="3.5" r="3.5" transform="translate(131 807)"/></g><g transform="translate(-11 -567)"><circle class="c" cx="3.5" cy="3.5" r="3.5" transform="translate(131 807)"/></g><g transform="translate(19 -567)"><circle class="c" cx="3.5" cy="3.5" r="3.5" transform="translate(131 807)"/></g><g transform="translate(49 -567)"><circle class="c" cx="3.5" cy="3.5" r="3.5" transform="translate(131 807)"/></g><g transform="translate(79 -567)"><circle class="c" cx="3.5" cy="3.5" r="3.5" transform="translate(131 807)"/></g><g transform="translate(109 -567)"><circle class="c" cx="3.5" cy="3.5" r="3.5" transform="translate(131 807)"/></g><g transform="translate(-131 -537)"><circle class="c" cx="3.5" cy="3.5" r="3.5" transform="translate(131 807)"/></g><g transform="translate(-101 -537)"><circle class="c" cx="3.5" cy="3.5" r="3.5" transform="translate(131 807)"/></g><g transform="translate(-71 -537)"><circle class="c" cx="3.5" cy="3.5" r="3.5" transform="translate(131 807)"/></g><g transform="translate(-41 -537)"><circle class="c" cx="3.5" cy="3.5" r="3.5" transform="translate(131 807)"/></g><g transform="translate(-11 -537)"><circle class="c" cx="3.5" cy="3.5" r="3.5" transform="translate(131 807)"/></g><g transform="translate(19 -537)"><circle class="c" cx="3.5" cy="3.5" r="3.5" transform="translate(131 807)"/></g><g transform="translate(49 -537)"><circle class="c" cx="3.5" cy="3.5" r="3.5" transform="translate(131 807)"/></g><g transform="translate(79 -537)"><circle class="c" cx="3.5" cy="3.5" r="3.5" transform="translate(131 807)"/></g><g transform="translate(109 -537)"><circle class="c" cx="3.5" cy="3.5" r="3.5" transform="translate(131 807)"/></g><g transform="translate(-131 -507)"><circle class="c" cx="3.5" cy="3.5" r="3.5" transform="translate(131 807)"/></g><g transform="translate(-101 -507)"><circle class="c" cx="3.5" cy="3.5" r="3.5" transform="translate(131 807)"/></g><g transform="translate(-71 -507)"><circle class="c" cx="3.5" cy="3.5" r="3.5" transform="translate(131 807)"/></g><g transform="translate(-41 -507)"><circle class="c" cx="3.5" cy="3.5" r="3.5" transform="translate(131 807)"/></g><g transform="translate(-11 -507)"><circle class="c" cx="3.5" cy="3.5" r="3.5" transform="translate(131 807)"/></g><g transform="translate(19 -507)"><circle class="c" cx="3.5" cy="3.5" r="3.5" transform="translate(131 807)"/></g><g transform="translate(49 -507)"><circle class="c" cx="3.5" cy="3.5" r="3.5" transform="translate(131 807)"/></g><g transform="translate(79 -507)"><circle class="c" cx="3.5" cy="3.5" r="3.5" transform="translate(131 807)"/></g><g transform="translate(109 -507)"><circle class="c" cx="3.5" cy="3.5" r="3.5" transform="translate(131 807)"/></g><g transform="translate(-131 -477)"><circle class="c" cx="3.5" cy="3.5" r="3.5" transform="translate(131 807)"/></g><g transform="translate(-101 -477)"><circle class="c" cx="3.5" cy="3.5" r="3.5" transform="translate(131 807)"/></g><g transform="translate(-71 -477)"><circle class="c" cx="3.5" cy="3.5" r="3.5" transform="translate(131 807)"/></g><g transform="translate(-41 -477)"><circle class="c" cx="3.5" cy="3.5" r="3.5" transform="translate(131 807)"/></g><g transform="translate(-11 -477)"><circle class="c" cx="3.5" cy="3.5" r="3.5" transform="translate(131 807)"/></g><g transform="translate(19 -477)"><circle class="c" cx="3.5" cy="3.5" r="3.5" transform="translate(131 807)"/></g><g transform="translate(49 -477)"><circle class="c" cx="3.5" cy="3.5" r="3.5" transform="translate(131 807)"/></g><g transform="translate(79 -477)"><circle class="c" cx="3.5" cy="3.5" r="3.5" transform="translate(131 807)"/></g><g transform="translate(109 -477)"><circle class="c" cx="3.5" cy="3.5" r="3.5" transform="translate(131 807)"/></g><g transform="translate(-131 -447)"><circle class="c" cx="3.5" cy="3.5" r="3.5" transform="translate(131 807)"/></g><g transform="translate(-101 -447)"><circle class="c" cx="3.5" cy="3.5" r="3.5" transform="translate(131 807)"/></g><g transform="translate(-71 -447)"><circle class="c" cx="3.5" cy="3.5" r="3.5" transform="translate(131 807)"/></g><g transform="translate(-41 -447)"><circle class="c" cx="3.5" cy="3.5" r="3.5" transform="translate(131 807)"/></g><g transform="translate(-11 -447)"><circle class="c" cx="3.5" cy="3.5" r="3.5" transform="translate(131 807)"/></g><g transform="translate(19 -447)"><circle class="c" cx="3.5" cy="3.5" r="3.5" transform="translate(131 807)"/></g><g transform="translate(49 -447)"><circle class="c" cx="3.5" cy="3.5" r="3.5" transform="translate(131 807)"/></g><g transform="translate(79 -447)"><circle class="c" cx="3.5" cy="3.5" r="3.5" transform="translate(131 807)"/></g><g transform="translate(109 -447)"><circle class="c" cx="3.5" cy="3.5" r="3.5" transform="translate(131 807)"/></g><g transform="translate(-131 -417)"><circle class="c" cx="3.5" cy="3.5" r="3.5" transform="translate(131 807)"/></g><g transform="translate(-101 -417)"><circle class="c" cx="3.5" cy="3.5" r="3.5" transform="translate(131 807)"/></g><g transform="translate(-71 -417)"><circle class="c" cx="3.5" cy="3.5" r="3.5" transform="translate(131 807)"/></g><g transform="translate(-41 -417)"><circle class="c" cx="3.5" cy="3.5" r="3.5" transform="translate(131 807)"/></g><g transform="translate(-11 -417)"><circle class="c" cx="3.5" cy="3.5" r="3.5" transform="translate(131 807)"/></g><g transform="translate(19 -417)"><circle class="c" cx="3.5" cy="3.5" r="3.5" transform="translate(131 807)"/></g><g transform="translate(49 -417)"><circle class="c" cx="3.5" cy="3.5" r="3.5" transform="translate(131 807)"/></g><g transform="translate(79 -417)"><circle class="c" cx="3.5" cy="3.5" r="3.5" transform="translate(131 807)"/></g><g transform="translate(109 -417)"><circle class="c" cx="3.5" cy="3.5" r="3.5" transform="translate(131 807)"/></g><g transform="translate(-131 -387)"><circle class="c" cx="3.5" cy="3.5" r="3.5" transform="translate(131 807)"/></g><g transform="translate(-101 -387)"><circle class="c" cx="3.5" cy="3.5" r="3.5" transform="translate(131 807)"/></g><g transform="translate(-71 -387)"><circle class="c" cx="3.5" cy="3.5" r="3.5" transform="translate(131 807)"/></g><g transform="translate(-41 -387)"><circle class="c" cx="3.5" cy="3.5" r="3.5" transform="translate(131 807)"/></g><g transform="translate(-11 -387)"><circle class="c" cx="3.5" cy="3.5" r="3.5" transform="translate(131 807)"/></g><g transform="translate(19 -387)"><circle class="c" cx="3.5" cy="3.5" r="3.5" transform="translate(131 807)"/></g><g transform="translate(49 -387)"><circle class="c" cx="3.5" cy="3.5" r="3.5" transform="translate(131 807)"/></g><g transform="translate(79 -387)"><circle class="c" cx="3.5" cy="3.5" r="3.5" transform="translate(131 807)"/></g><g transform="translate(109 -387)"><circle class="c" cx="3.5" cy="3.5" r="3.5" transform="translate(131 807)"/></g><g transform="translate(-131 -357)"><circle class="c" cx="3.5" cy="3.5" r="3.5" transform="translate(131 807)"/></g><g transform="translate(-101 -357)"><circle class="c" cx="3.5" cy="3.5" r="3.5" transform="translate(131 807)"/></g><g transform="translate(-71 -357)"><circle class="c" cx="3.5" cy="3.5" r="3.5" transform="translate(131 807)"/></g><g transform="translate(-41 -357)"><circle class="c" cx="3.5" cy="3.5" r="3.5" transform="translate(131 807)"/></g><g transform="translate(-11 -357)"><circle class="c" cx="3.5" cy="3.5" r="3.5" transform="translate(131 807)"/></g><g transform="translate(19 -357)"><circle class="c" cx="3.5" cy="3.5" r="3.5" transform="translate(131 807)"/></g><g transform="translate(49 -357)"><circle class="c" cx="3.5" cy="3.5" r="3.5" transform="translate(131 807)"/></g><g transform="translate(79 -357)"><circle class="c" cx="3.5" cy="3.5" r="3.5" transform="translate(131 807)"/></g><g transform="translate(109 -357)"><circle class="c" cx="3.5" cy="3.5" r="3.5" transform="translate(131 807)"/></g><g transform="translate(-131 -327)"><circle class="c" cx="3.5" cy="3.5" r="3.5" transform="translate(131 807)"/></g><g transform="translate(-101 -327)"><circle class="c" cx="3.5" cy="3.5" r="3.5" transform="translate(131 807)"/></g><g transform="translate(-71 -327)"><circle class="c" cx="3.5" cy="3.5" r="3.5" transform="translate(131 807)"/></g><g transform="translate(-41 -327)"><circle class="c" cx="3.5" cy="3.5" r="3.5" transform="translate(131 807)"/></g><g transform="translate(-11 -327)"><circle class="c" cx="3.5" cy="3.5" r="3.5" transform="translate(131 807)"/></g><g transform="translate(19 -327)"><circle class="c" cx="3.5" cy="3.5" r="3.5" transform="translate(131 807)"/></g><g transform="translate(49 -327)"><circle class="c" cx="3.5" cy="3.5" r="3.5" transform="translate(131 807)"/></g><g transform="translate(79 -327)"><circle class="c" cx="3.5" cy="3.5" r="3.5" transform="translate(131 807)"/></g><g transform="translate(109 -327)"><circle class="c" cx="3.5" cy="3.5" r="3.5" transform="translate(131 807)"/></g><g transform="translate(-131 -297)"><circle class="c" cx="3.5" cy="3.5" r="3.5" transform="translate(131 807)"/></g><g transform="translate(-101 -297)"><circle class="c" cx="3.5" cy="3.5" r="3.5" transform="translate(131 807)"/></g><g transform="translate(-71 -297)"><circle class="c" cx="3.5" cy="3.5" r="3.5" transform="translate(131 807)"/></g><g transform="translate(-41 -297)"><circle class="c" cx="3.5" cy="3.5" r="3.5" transform="translate(131 807)"/></g><g transform="translate(-11 -297)"><circle class="c" cx="3.5" cy="3.5" r="3.5" transform="translate(131 807)"/></g><g transform="translate(19 -297)"><circle class="c" cx="3.5" cy="3.5" r="3.5" transform="translate(131 807)"/></g><g transform="translate(49 -297)"><circle class="c" cx="3.5" cy="3.5" r="3.5" transform="translate(131 807)"/></g><g transform="translate(79 -297)"><circle class="c" cx="3.5" cy="3.5" r="3.5" transform="translate(131 807)"/></g><g transform="translate(109 -297)"><circle class="c" cx="3.5" cy="3.5" r="3.5" transform="translate(131 807)"/></g><g transform="translate(-131 -267)"><circle class="c" cx="3.5" cy="3.5" r="3.5" transform="translate(131 807)"/></g><g transform="translate(-101 -267)"><circle class="c" cx="3.5" cy="3.5" r="3.5" transform="translate(131 807)"/></g><g transform="translate(-71 -267)"><circle class="c" cx="3.5" cy="3.5" r="3.5" transform="translate(131 807)"/></g><g transform="translate(-41 -267)"><circle class="c" cx="3.5" cy="3.5" r="3.5" transform="translate(131 807)"/></g><g transform="translate(-11 -267)"><circle class="c" cx="3.5" cy="3.5" r="3.5" transform="translate(131 807)"/></g><g transform="translate(19 -267)"><circle class="c" cx="3.5" cy="3.5" r="3.5" transform="translate(131 807)"/></g><g transform="translate(49 -267)"><circle class="c" cx="3.5" cy="3.5" r="3.5" transform="translate(131 807)"/></g><g transform="translate(79 -267)"><circle class="c" cx="3.5" cy="3.5" r="3.5" transform="translate(131 807)"/></g><g transform="translate(109 -267)"><circle class="c" cx="3.5" cy="3.5" r="3.5" transform="translate(131 807)"/></g><g transform="translate(-131 -237)"><circle class="c" cx="3.5" cy="3.5" r="3.5" transform="translate(131 807)"/></g><g transform="translate(-101 -237)"><circle class="c" cx="3.5" cy="3.5" r="3.5" transform="translate(131 807)"/></g><g transform="translate(-71 -237)"><circle class="c" cx="3.5" cy="3.5" r="3.5" transform="translate(131 807)"/></g><g transform="translate(-41 -237)"><circle class="c" cx="3.5" cy="3.5" r="3.5" transform="translate(131 807)"/></g><g transform="translate(-11 -237)"><circle class="c" cx="3.5" cy="3.5" r="3.5" transform="translate(131 807)"/></g><g transform="translate(19 -237)"><circle class="c" cx="3.5" cy="3.5" r="3.5" transform="translate(131 807)"/></g><g transform="translate(49 -237)"><circle class="c" cx="3.5" cy="3.5" r="3.5" transform="translate(131 807)"/></g><g transform="translate(79 -237)"><circle class="c" cx="3.5" cy="3.5" r="3.5" transform="translate(131 807)"/></g><g transform="translate(109 -237)"><circle class="c" cx="3.5" cy="3.5" r="3.5" transform="translate(131 807)"/></g><g transform="translate(-131 -207)"><circle class="c" cx="3.5" cy="3.5" r="3.5" transform="translate(131 807)"/></g><g transform="translate(-101 -207)"><circle class="c" cx="3.5" cy="3.5" r="3.5" transform="translate(131 807)"/></g><g transform="translate(-71 -207)"><circle class="c" cx="3.5" cy="3.5" r="3.5" transform="translate(131 807)"/></g><g transform="translate(-41 -207)"><circle class="c" cx="3.5" cy="3.5" r="3.5" transform="translate(131 807)"/></g><g transform="translate(-11 -207)"><circle class="c" cx="3.5" cy="3.5" r="3.5" transform="translate(131 807)"/></g><g transform="translate(19 -207)"><circle class="c" cx="3.5" cy="3.5" r="3.5" transform="translate(131 807)"/></g><g transform="translate(49 -207)"><circle class="c" cx="3.5" cy="3.5" r="3.5" transform="translate(131 807)"/></g><g transform="translate(79 -207)"><circle class="c" cx="3.5" cy="3.5" r="3.5" transform="translate(131 807)"/></g><g transform="translate(109 -207)"><circle class="c" cx="3.5" cy="3.5" r="3.5" transform="translate(131 807)"/></g><g transform="translate(-131 -177)"><circle class="c" cx="3.5" cy="3.5" r="3.5" transform="translate(131 807)"/></g><g transform="translate(-101 -177)"><circle class="c" cx="3.5" cy="3.5" r="3.5" transform="translate(131 807)"/></g><g transform="translate(-71 -177)"><circle class="c" cx="3.5" cy="3.5" r="3.5" transform="translate(131 807)"/></g><g transform="translate(-41 -177)"><circle class="c" cx="3.5" cy="3.5" r="3.5" transform="translate(131 807)"/></g><g transform="translate(-11 -177)"><circle class="c" cx="3.5" cy="3.5" r="3.5" transform="translate(131 807)"/></g><g transform="translate(19 -177)"><circle class="c" cx="3.5" cy="3.5" r="3.5" transform="translate(131 807)"/></g><g transform="translate(49 -177)"><circle class="c" cx="3.5" cy="3.5" r="3.5" transform="translate(131 807)"/></g><g transform="translate(79 -177)"><circle class="c" cx="3.5" cy="3.5" r="3.5" transform="translate(131 807)"/></g><g transform="translate(109 -177)"><circle class="c" cx="3.5" cy="3.5" r="3.5" transform="translate(131 807)"/></g><g transform="translate(-131 -147)"><circle class="c" cx="3.5" cy="3.5" r="3.5" transform="translate(131 807)"/></g><g transform="translate(-101 -147)"><circle class="c" cx="3.5" cy="3.5" r="3.5" transform="translate(131 807)"/></g><g transform="translate(-71 -147)"><circle class="c" cx="3.5" cy="3.5" r="3.5" transform="translate(131 807)"/></g><g transform="translate(-41 -147)"><circle class="c" cx="3.5" cy="3.5" r="3.5" transform="translate(131 807)"/></g><g transform="translate(-11 -147)"><circle class="c" cx="3.5" cy="3.5" r="3.5" transform="translate(131 807)"/></g><g transform="translate(19 -147)"><circle class="c" cx="3.5" cy="3.5" r="3.5" transform="translate(131 807)"/></g><g transform="translate(49 -147)"><circle class="c" cx="3.5" cy="3.5" r="3.5" transform="translate(131 807)"/></g><g transform="translate(79 -147)"><circle class="c" cx="3.5" cy="3.5" r="3.5" transform="translate(131 807)"/></g><g transform="translate(109 -147)"><circle class="c" cx="3.5" cy="3.5" r="3.5" transform="translate(131 807)"/></g></g></svg>