<svg xmlns="http://www.w3.org/2000/svg" xmlns:xlink="http://www.w3.org/1999/xlink" width="121" height="453" viewBox="0 0 121 453"><defs><style>.a{fill:none;}.b{opacity:0.163;clip-path:url(#a);}.c{fill:#fff;}</style><clipPath id="a"><rect class="a" width="121" height="453"/></clipPath></defs><g class="b"><g transform="translate(-131 -807)"><circle class="c" cx="3.5" cy="3.5" r="3.5" transform="translate(131 807)"/></g><g transform="translate(-101 -807)"><circle class="c" cx="3.5" cy="3.5" r="3.5" transform="translate(131 807)"/></g><g transform="translate(-71 -807)"><circle class="c" cx="3.5" cy="3.5" r="3.5" transform="translate(131 807)"/></g><g transform="translate(-41 -807)"><circle class="c" cx="3.5" cy="3.5" r="3.5" transform="translate(131 807)"/></g><g transform="translate(-11 -807)"><circle class="c" cx="3.5" cy="3.5" r="3.5" transform="translate(131 807)"/></g><g transform="translate(-131 -777)"><circle class="c" cx="3.5" cy="3.5" r="3.5" transform="translate(131 807)"/></g><g transform="translate(-101 -777)"><circle class="c" cx="3.5" cy="3.5" r="3.5" transform="translate(131 807)"/></g><g transform="translate(-71 -777)"><circle class="c" cx="3.5" cy="3.5" r="3.5" transform="translate(131 807)"/></g><g transform="translate(-41 -777)"><circle class="c" cx="3.5" cy="3.5" r="3.5" transform="translate(131 807)"/></g><g transform="translate(-11 -777)"><circle class="c" cx="3.5" cy="3.5" r="3.5" transform="translate(131 807)"/></g><g transform="translate(-131 -747)"><circle class="c" cx="3.5" cy="3.5" r="3.5" transform="translate(131 807)"/></g><g transform="translate(-101 -747)"><circle class="c" cx="3.5" cy="3.5" r="3.5" transform="translate(131 807)"/></g><g transform="translate(-71 -747)"><circle class="c" cx="3.5" cy="3.5" r="3.5" transform="translate(131 807)"/></g><g transform="translate(-41 -747)"><circle class="c" cx="3.5" cy="3.5" r="3.5" transform="translate(131 807)"/></g><g transform="translate(-11 -747)"><circle class="c" cx="3.5" cy="3.5" r="3.5" transform="translate(131 807)"/></g><g transform="translate(-131 -717)"><circle class="c" cx="3.5" cy="3.5" r="3.5" transform="translate(131 807)"/></g><g transform="translate(-101 -717)"><circle class="c" cx="3.5" cy="3.5" r="3.5" transform="translate(131 807)"/></g><g transform="translate(-71 -717)"><circle class="c" cx="3.5" cy="3.5" r="3.5" transform="translate(131 807)"/></g><g transform="translate(-41 -717)"><circle class="c" cx="3.5" cy="3.5" r="3.5" transform="translate(131 807)"/></g><g transform="translate(-11 -717)"><circle class="c" cx="3.5" cy="3.5" r="3.5" transform="translate(131 807)"/></g><g transform="translate(-131 -687)"><circle class="c" cx="3.5" cy="3.5" r="3.5" transform="translate(131 807)"/></g><g transform="translate(-101 -687)"><circle class="c" cx="3.5" cy="3.5" r="3.5" transform="translate(131 807)"/></g><g transform="translate(-71 -687)"><circle class="c" cx="3.5" cy="3.5" r="3.5" transform="translate(131 807)"/></g><g transform="translate(-41 -687)"><circle class="c" cx="3.5" cy="3.5" r="3.5" transform="translate(131 807)"/></g><g transform="translate(-11 -687)"><circle class="c" cx="3.5" cy="3.5" r="3.5" transform="translate(131 807)"/></g><g transform="translate(-131 -657)"><circle class="c" cx="3.5" cy="3.5" r="3.5" transform="translate(131 807)"/></g><g transform="translate(-101 -657)"><circle class="c" cx="3.5" cy="3.5" r="3.5" transform="translate(131 807)"/></g><g transform="translate(-71 -657)"><circle class="c" cx="3.5" cy="3.5" r="3.5" transform="translate(131 807)"/></g><g transform="translate(-41 -657)"><circle class="c" cx="3.5" cy="3.5" r="3.5" transform="translate(131 807)"/></g><g transform="translate(-11 -657)"><circle class="c" cx="3.5" cy="3.5" r="3.5" transform="translate(131 807)"/></g><g transform="translate(-131 -627)"><circle class="c" cx="3.5" cy="3.5" r="3.5" transform="translate(131 807)"/></g><g transform="translate(-101 -627)"><circle class="c" cx="3.5" cy="3.5" r="3.5" transform="translate(131 807)"/></g><g transform="translate(-71 -627)"><circle class="c" cx="3.5" cy="3.5" r="3.5" transform="translate(131 807)"/></g><g transform="translate(-41 -627)"><circle class="c" cx="3.5" cy="3.5" r="3.5" transform="translate(131 807)"/></g><g transform="translate(-11 -627)"><circle class="c" cx="3.5" cy="3.5" r="3.5" transform="translate(131 807)"/></g><g transform="translate(-131 -597)"><circle class="c" cx="3.5" cy="3.5" r="3.5" transform="translate(131 807)"/></g><g transform="translate(-101 -597)"><circle class="c" cx="3.5" cy="3.5" r="3.5" transform="translate(131 807)"/></g><g transform="translate(-71 -597)"><circle class="c" cx="3.5" cy="3.5" r="3.5" transform="translate(131 807)"/></g><g transform="translate(-41 -597)"><circle class="c" cx="3.5" cy="3.5" r="3.5" transform="translate(131 807)"/></g><g transform="translate(-11 -597)"><circle class="c" cx="3.5" cy="3.5" r="3.5" transform="translate(131 807)"/></g><g transform="translate(-131 -567)"><circle class="c" cx="3.5" cy="3.5" r="3.5" transform="translate(131 807)"/></g><g transform="translate(-101 -567)"><circle class="c" cx="3.5" cy="3.5" r="3.5" transform="translate(131 807)"/></g><g transform="translate(-71 -567)"><circle class="c" cx="3.5" cy="3.5" r="3.5" transform="translate(131 807)"/></g><g transform="translate(-41 -567)"><circle class="c" cx="3.5" cy="3.5" r="3.5" transform="translate(131 807)"/></g><g transform="translate(-11 -567)"><circle class="c" cx="3.5" cy="3.5" r="3.5" transform="translate(131 807)"/></g><g transform="translate(-131 -537)"><circle class="c" cx="3.5" cy="3.5" r="3.5" transform="translate(131 807)"/></g><g transform="translate(-101 -537)"><circle class="c" cx="3.5" cy="3.5" r="3.5" transform="translate(131 807)"/></g><g transform="translate(-71 -537)"><circle class="c" cx="3.5" cy="3.5" r="3.5" transform="translate(131 807)"/></g><g transform="translate(-41 -537)"><circle class="c" cx="3.5" cy="3.5" r="3.5" transform="translate(131 807)"/></g><g transform="translate(-11 -537)"><circle class="c" cx="3.5" cy="3.5" r="3.5" transform="translate(131 807)"/></g><g transform="translate(-131 -507)"><circle class="c" cx="3.5" cy="3.5" r="3.5" transform="translate(131 807)"/></g><g transform="translate(-101 -507)"><circle class="c" cx="3.5" cy="3.5" r="3.5" transform="translate(131 807)"/></g><g transform="translate(-71 -507)"><circle class="c" cx="3.5" cy="3.5" r="3.5" transform="translate(131 807)"/></g><g transform="translate(-41 -507)"><circle class="c" cx="3.5" cy="3.5" r="3.5" transform="translate(131 807)"/></g><g transform="translate(-11 -507)"><circle class="c" cx="3.5" cy="3.5" r="3.5" transform="translate(131 807)"/></g><g transform="translate(-131 -477)"><circle class="c" cx="3.5" cy="3.5" r="3.5" transform="translate(131 807)"/></g><g transform="translate(-101 -477)"><circle class="c" cx="3.5" cy="3.5" r="3.5" transform="translate(131 807)"/></g><g transform="translate(-71 -477)"><circle class="c" cx="3.5" cy="3.5" r="3.5" transform="translate(131 807)"/></g><g transform="translate(-41 -477)"><circle class="c" cx="3.5" cy="3.5" r="3.5" transform="translate(131 807)"/></g><g transform="translate(-11 -477)"><circle class="c" cx="3.5" cy="3.5" r="3.5" transform="translate(131 807)"/></g><g transform="translate(-131 -447)"><circle class="c" cx="3.5" cy="3.5" r="3.5" transform="translate(131 807)"/></g><g transform="translate(-101 -447)"><circle class="c" cx="3.5" cy="3.5" r="3.5" transform="translate(131 807)"/></g><g transform="translate(-71 -447)"><circle class="c" cx="3.5" cy="3.5" r="3.5" transform="translate(131 807)"/></g><g transform="translate(-41 -447)"><circle class="c" cx="3.5" cy="3.5" r="3.5" transform="translate(131 807)"/></g><g transform="translate(-11 -447)"><circle class="c" cx="3.5" cy="3.5" r="3.5" transform="translate(131 807)"/></g><g transform="translate(-131 -417)"><circle class="c" cx="3.5" cy="3.5" r="3.5" transform="translate(131 807)"/></g><g transform="translate(-101 -417)"><circle class="c" cx="3.5" cy="3.5" r="3.5" transform="translate(131 807)"/></g><g transform="translate(-71 -417)"><circle class="c" cx="3.5" cy="3.5" r="3.5" transform="translate(131 807)"/></g><g transform="translate(-41 -417)"><circle class="c" cx="3.5" cy="3.5" r="3.5" transform="translate(131 807)"/></g><g transform="translate(-11 -417)"><circle class="c" cx="3.5" cy="3.5" r="3.5" transform="translate(131 807)"/></g><g transform="translate(-131 -387)"><circle class="c" cx="3.5" cy="3.5" r="3.5" transform="translate(131 807)"/></g><g transform="translate(-101 -387)"><circle class="c" cx="3.5" cy="3.5" r="3.5" transform="translate(131 807)"/></g><g transform="translate(-71 -387)"><circle class="c" cx="3.5" cy="3.5" r="3.5" transform="translate(131 807)"/></g><g transform="translate(-41 -387)"><circle class="c" cx="3.5" cy="3.5" r="3.5" transform="translate(131 807)"/></g><g transform="translate(-11 -387)"><circle class="c" cx="3.5" cy="3.5" r="3.5" transform="translate(131 807)"/></g><g transform="translate(-131 -357)"><circle class="c" cx="3.5" cy="3.5" r="3.5" transform="translate(131 807)"/></g><g transform="translate(-101 -357)"><circle class="c" cx="3.5" cy="3.5" r="3.5" transform="translate(131 807)"/></g><g transform="translate(-71 -357)"><circle class="c" cx="3.5" cy="3.5" r="3.5" transform="translate(131 807)"/></g><g transform="translate(-41 -357)"><circle class="c" cx="3.5" cy="3.5" r="3.5" transform="translate(131 807)"/></g><g transform="translate(-11 -357)"><circle class="c" cx="3.5" cy="3.5" r="3.5" transform="translate(131 807)"/></g></g></svg>